<svg width="450" height="250" viewBox="0 0 450 250" fill="none" xmlns="http://www.w3.org/2000/svg">
<path d="M210.221 25.7607C207.225 25.9231 204.513 28.2797 203.092 30.7986C201.192 34.1753 200.871 38.1973 202.021 41.8904C200.584 41.6239 199.3 41.3866 197.813 41.5282C193.325 41.957 188.296 46.0498 187.646 50.584C187.538 46.4912 189.484 42.5316 192.992 40.3374C193.817 39.8211 194.713 39.4297 195.646 39.1633C195.888 39.0967 198.617 38.6012 198.617 38.7386C198.625 38.1723 198.179 37.4978 198.363 35.083C198.471 33.6507 199.146 31.7146 199.854 30.4614C201.909 26.8224 206.059 24.6573 210.217 25.7565L210.221 25.7607Z" fill="#7A6D6A"/>
<path d="M203.092 30.7988C204.508 28.2756 207.221 25.9232 210.221 25.7608C210.754 25.7317 211.854 25.7067 212.367 25.7608C214.117 25.9482 216.125 27.1098 217.408 28.2798C216.75 20.9602 220.196 13.6614 226.45 9.78097C228.429 8.55271 231.204 7.40773 233.55 7.23702C242.763 6.56668 250.529 12.1501 253.35 20.7187C253.579 21.4182 253.804 23.1669 253.854 23.933C254.033 26.6643 253.596 29.2416 252.721 31.8063H255.683C256.1 31.8063 257.292 32.1228 257.763 32.2477C268.913 35.2413 270.925 50.4134 261.033 56.3049C257.079 58.6615 253.392 58.2784 248.996 58.5157C231.933 59.4317 214.863 60.2311 197.804 60.9181C196.054 60.9889 194.204 61.2554 192.442 61.1679C192.317 61.1638 192.188 61.1804 192.063 61.1679C192.021 61.1638 191.975 61.1763 191.938 61.1679L189.363 58.3867C187.658 56.0592 187.246 53.4029 187.65 50.5841C188.3 46.0458 193.329 41.9572 197.817 41.5283C199.304 41.3868 200.588 41.6241 202.025 41.8905C200.875 38.1974 201.196 34.1754 203.096 30.7988" fill="#5E5453"/>
<path d="M266.092 29.978C266.188 31.2187 265.979 32.472 266.017 33.7086C269.042 34.1083 271.896 35.12 274.275 37.0519C281.283 42.7394 282.133 54.4266 275.296 60.6095C274.629 61.2132 273.438 61.8252 272.9 62.4331C272.863 62.4748 272.792 62.5247 272.775 62.558L272.65 62.6829C272.613 62.6746 272.563 62.6829 272.525 62.6829C272.096 62.7079 270.221 63.6989 269.525 63.907C268.713 64.1485 267.758 64.2943 266.917 64.4525C244.071 64.3192 221.188 64.6898 198.367 64.2651C196.675 63.7946 194.846 63.1826 193.388 62.1833C193.054 61.9543 192.392 61.6379 192.446 61.1716C194.204 61.2548 196.058 60.9925 197.808 60.9218C214.867 60.2348 231.938 59.4395 249 58.5194C253.396 58.282 257.083 58.6651 261.038 56.3085C270.933 50.417 268.921 35.2408 257.767 32.2513C257.296 32.1264 256.1 31.81 255.688 31.81H252.725C253.6 29.2452 254.038 26.6638 253.858 23.9366C253.808 23.1664 253.583 21.4177 253.354 20.7223C261.363 20.1686 265.721 25.1024 266.096 29.978H266.092Z" fill="#544B4B"/>
<path d="M233.55 7.23641C231.204 7.40712 228.429 8.55211 226.45 9.78036C220.192 13.665 216.75 20.9596 217.408 28.2792C216.125 27.1092 214.117 25.9434 212.367 25.7602C212.838 15.5344 221.054 7.6153 231.213 7.10318C231.925 7.06571 232.879 7.03656 233.55 7.23641Z" fill="#7A6D6A"/>
<path d="M285.379 62.8274C282.388 62.9898 279.683 65.3381 278.267 67.8529C276.371 71.2212 276.05 75.2349 277.2 78.9197C275.767 78.6532 274.483 78.4159 273 78.5574C268.521 78.9863 263.504 83.0666 262.854 87.5966C262.746 83.5121 264.688 79.5609 268.188 77.375C269.008 76.8587 269.904 76.4673 270.838 76.2009C271.075 76.1342 273.804 75.6429 273.8 75.7803C273.808 75.2141 273.367 74.5438 273.546 72.133C273.654 70.7049 274.329 68.773 275.033 67.5239C277.083 63.8933 281.221 61.7366 285.371 62.8316L285.379 62.8274Z" fill="#7A6D6A"/>
<path d="M278.267 67.8531C279.679 65.3383 282.387 62.9859 285.379 62.8277C285.912 62.7985 287.008 62.7736 287.517 62.8277C289.262 63.015 291.267 64.1725 292.55 65.3425C291.896 58.0396 295.329 50.7575 301.571 46.8853C303.546 45.6571 306.317 44.5162 308.654 44.3455C317.846 43.6752 325.596 49.2461 328.408 57.7981C328.637 58.4934 328.858 60.2379 328.908 61.004C329.087 63.727 328.65 66.3001 327.779 68.8607H330.737C331.15 68.8607 332.342 69.1772 332.812 69.3021C343.937 72.2874 345.946 87.4262 336.075 93.3051C332.129 95.6534 328.45 95.2745 324.062 95.5118C307.037 96.4278 290.004 97.2231 272.983 97.9059C271.237 97.9767 269.392 98.239 267.633 98.1557C267.508 98.1515 267.379 98.1682 267.254 98.1557C267.212 98.1515 267.167 98.164 267.129 98.1557L264.558 95.3786C262.858 93.0595 262.446 90.4073 262.85 87.5927C263.496 83.0669 268.517 78.9824 272.996 78.5535C274.479 78.412 275.762 78.6493 277.196 78.9158C276.05 75.231 276.367 71.2215 278.262 67.849" fill="#5E5453"/>
<path d="M341.121 67.0373C341.217 68.2739 341.013 69.5271 341.046 70.7596C344.063 71.1551 346.913 72.171 349.283 74.0946C356.279 79.7696 357.125 91.4318 350.304 97.598C349.638 98.1976 348.45 98.8138 347.913 99.4175C347.875 99.4592 347.804 99.5091 347.788 99.5424L347.663 99.6673C347.625 99.659 347.575 99.6673 347.538 99.6673C347.108 99.6923 345.238 100.683 344.546 100.887C343.733 101.129 342.783 101.274 341.946 101.433C319.15 101.299 296.317 101.67 273.546 101.245C271.858 100.779 270.033 100.167 268.579 99.1677C268.246 98.9387 267.588 98.6223 267.638 98.1601C269.392 98.2434 271.242 97.9811 272.988 97.9103C290.008 97.2233 307.042 96.4322 324.067 95.5162C328.454 95.2789 332.133 95.662 336.079 93.3095C345.95 87.4306 343.942 72.2918 332.817 69.3065C332.346 69.1816 331.154 68.8651 330.742 68.8651H327.783C328.654 66.3045 329.092 63.7314 328.913 61.0084C328.863 60.2423 328.642 58.4978 328.413 57.8025C336.404 57.2487 340.75 62.1742 341.125 67.0373H341.121Z" fill="#544B4B"/>
<path d="M308.654 44.3458C306.313 44.5165 303.546 45.6573 301.571 46.8856C295.329 50.7619 291.892 58.0398 292.55 65.3428C291.271 64.1769 289.267 63.0153 287.517 62.8279C287.988 52.6272 296.184 44.7247 306.321 44.2126C307.034 44.1751 307.984 44.1459 308.654 44.3458Z" fill="#7A6D6A"/>
<path d="M113.904 18.2902C112.158 18.386 110.579 19.7558 109.75 21.2256C108.642 23.1949 108.458 25.539 109.125 27.6874C108.288 27.5334 107.538 27.3918 106.671 27.4751C104.054 27.7249 101.125 30.1106 100.746 32.7545C100.683 30.3688 101.817 28.0622 103.863 26.7839C104.342 26.4842 104.867 26.2552 105.408 26.1011C105.55 26.0595 107.142 25.7722 107.138 25.8555C107.142 25.5265 106.883 25.1352 106.992 23.7279C107.054 22.8951 107.45 21.7668 107.863 21.034C109.058 18.9148 111.475 17.6532 113.9 18.2944L113.904 18.2902Z" fill="#7A6D6A"/>
<path d="M109.75 21.226C110.575 19.7562 112.158 18.3864 113.904 18.2906C114.217 18.274 114.854 18.2573 115.154 18.2906C116.175 18.3989 117.346 19.0776 118.092 19.7604C117.708 15.4969 119.717 11.2459 123.358 8.98087C124.513 8.26473 126.129 7.59856 127.496 7.49863C132.863 7.10725 137.388 10.359 139.033 15.3553C139.167 15.7633 139.296 16.7793 139.325 17.2289C139.429 18.8194 139.175 20.3225 138.663 21.8172H140.388C140.629 21.8172 141.325 22.0004 141.6 22.0753C148.096 23.8199 149.271 32.6592 143.504 36.0941C141.2 37.4681 139.05 37.2433 136.492 37.3807C126.55 37.9136 116.604 38.3799 106.663 38.7796C105.642 38.8213 104.563 38.9753 103.538 38.9254C103.467 38.9254 103.388 38.9337 103.317 38.9254C103.292 38.9254 103.267 38.9295 103.242 38.9254L101.742 37.3057C100.746 35.9484 100.508 34.3996 100.746 32.7591C101.125 30.1152 104.054 27.7337 106.671 27.4797C107.538 27.3964 108.288 27.5338 109.125 27.692C108.454 25.5394 108.642 23.1995 109.75 21.2301" fill="#5E5453"/>
<path d="M146.454 20.7477C146.509 21.4722 146.392 22.2008 146.409 22.9211C148.171 23.1543 149.834 23.7455 151.221 24.8697C155.304 28.1839 155.8 34.9913 151.817 38.5928C151.429 38.9426 150.734 39.3007 150.421 39.6546C150.4 39.6795 150.359 39.7087 150.346 39.7295L150.271 39.8044C150.25 39.8003 150.221 39.8044 150.196 39.8044C149.946 39.8211 148.854 40.3957 148.45 40.5164C147.975 40.658 147.421 40.7413 146.929 40.8329C133.617 40.7579 120.284 40.9703 106.988 40.7246C106.004 40.4498 104.938 40.0959 104.088 39.513C103.892 39.3798 103.509 39.1966 103.538 38.9218C104.563 38.9717 105.642 38.8177 106.663 38.776C116.6 38.3763 126.546 37.91 136.492 37.3771C139.054 37.2397 141.2 37.4603 143.504 36.0905C149.271 32.6556 148.096 23.8163 141.6 22.0717C141.325 21.9968 140.629 21.8136 140.388 21.8136H138.663C139.171 20.3189 139.425 18.8158 139.325 17.2253C139.296 16.7757 139.167 15.7597 139.034 15.3517C143.7 15.0311 146.238 17.904 146.459 20.7436L146.454 20.7477Z" fill="#544B4B"/>
<path d="M127.496 7.49848C126.129 7.59841 124.513 8.26458 123.358 8.98072C119.713 11.2415 117.708 15.4926 118.092 19.7602C117.346 19.0774 116.175 18.3987 115.154 18.2905C115.429 12.3324 120.217 7.71915 126.133 7.41937C126.55 7.39856 127.104 7.3819 127.496 7.49432V7.49848Z" fill="#7A6D6A"/>
<path d="M122.154 72.7168C116.841 73.0041 112.033 77.176 109.521 81.6477C106.154 87.6349 105.587 94.763 107.625 101.304C105.079 100.833 102.8 100.409 100.166 100.663C92.2123 101.425 83.2956 108.673 82.1456 116.718C81.954 109.46 85.404 102.445 91.6206 98.556C93.0831 97.64 94.6706 96.9447 96.329 96.4742C96.754 96.3535 101.596 95.4791 101.591 95.7248C101.604 94.7213 100.821 93.5264 101.141 89.2462C101.333 86.7064 102.529 83.2798 103.787 81.0564C107.429 74.6029 114.779 70.7724 122.154 72.7209V72.7168Z" fill="#7A6D6A"/>
<path d="M109.521 81.6437C112.033 77.1762 116.842 73.0001 122.154 72.7128C123.104 72.6629 125.05 72.6171 125.954 72.7128C129.058 73.0418 132.617 75.1069 134.892 77.1804C133.729 64.2066 139.829 51.2745 150.917 44.3921C154.429 42.2146 159.342 40.1869 163.504 39.883C179.833 38.6922 193.596 48.589 198.596 63.7819C199.004 65.0185 199.4 68.1162 199.487 69.4777C199.804 74.3158 199.029 78.8874 197.479 83.4341H202.733C203.467 83.4341 205.587 83.992 206.421 84.2168C226.187 89.5212 229.754 116.414 212.217 126.856C205.208 131.032 198.671 130.354 190.879 130.774C160.633 132.402 130.379 133.809 100.142 135.029C97.0415 135.154 93.7582 135.625 90.6415 135.475C90.4207 135.462 90.1915 135.5 89.9707 135.475C89.8957 135.466 89.8165 135.487 89.7457 135.475L85.1832 130.541C82.1582 126.419 81.4332 121.706 82.1457 116.709C83.2957 108.67 92.2124 101.417 100.167 100.655C102.8 100.405 105.079 100.825 107.625 101.296C105.587 94.7548 106.154 87.6226 109.521 81.6396" fill="#5E5453"/>
<path d="M221.179 80.1909C221.35 82.3893 220.983 84.6126 221.046 86.8026C226.408 87.5063 231.471 89.3091 235.679 92.7233C248.104 102.803 249.608 123.517 237.487 134.476C236.304 135.546 234.196 136.632 233.237 137.711C233.167 137.79 233.046 137.877 233.012 137.936L232.787 138.16C232.725 138.148 232.633 138.156 232.562 138.16C231.8 138.206 228.479 139.963 227.246 140.33C225.804 140.759 224.112 141.017 222.625 141.296C182.133 141.062 141.571 141.72 101.121 140.963C98.1249 140.13 94.8833 139.043 92.2999 137.269C91.7083 136.866 90.5374 136.304 90.6291 135.475C93.7458 135.625 97.0291 135.154 100.129 135.029C130.362 133.81 160.621 132.402 190.867 130.774C198.658 130.354 205.196 131.032 212.204 126.856C229.742 116.414 226.175 89.5173 206.408 84.2171C205.575 83.9922 203.458 83.4343 202.721 83.4343H197.467C199.017 78.8835 199.792 74.3161 199.475 69.478C199.387 68.1165 198.992 65.0188 198.583 63.7822C212.779 62.8037 220.504 71.5473 221.167 80.1909H221.179Z" fill="#544B4B"/>
<path d="M163.504 39.8828C159.346 40.1868 154.429 42.2144 150.916 44.392C139.825 51.2744 133.725 64.2065 134.891 77.1802C132.616 75.1068 129.058 73.0416 125.954 72.7127C126.791 54.5928 141.35 40.5532 159.358 39.6455C160.621 39.583 162.312 39.5289 163.504 39.8787V39.8828Z" fill="#7A6D6A"/>
<path d="M261.408 123.341C257.046 123.579 253.096 127.005 251.029 130.678C248.262 135.595 247.796 141.453 249.471 146.824C247.379 146.437 245.508 146.091 243.341 146.295C236.808 146.92 229.483 152.878 228.537 159.481C228.379 153.519 231.212 147.757 236.321 144.563C237.521 143.814 238.825 143.239 240.187 142.852C240.537 142.752 244.516 142.036 244.512 142.236C244.525 141.411 243.879 140.433 244.146 136.915C244.304 134.829 245.287 132.014 246.316 130.186C249.308 124.886 255.346 121.738 261.404 123.337L261.408 123.341Z" fill="#7A6D6A"/>
<path d="M251.029 130.679C253.092 127.006 257.042 123.58 261.408 123.342C262.187 123.301 263.787 123.263 264.529 123.342C267.079 123.613 270.004 125.307 271.871 127.01C270.912 116.352 275.925 105.73 285.037 100.076C287.921 98.2858 291.958 96.6204 295.375 96.3706C308.787 95.3921 320.096 103.524 324.204 116.002C324.537 117.018 324.862 119.562 324.937 120.682C325.196 124.658 324.558 128.409 323.287 132.148H327.604C328.208 132.148 329.946 132.606 330.633 132.789C346.871 137.145 349.8 159.241 335.392 167.818C329.633 171.249 324.262 170.691 317.862 171.036C293.017 172.373 268.162 173.53 243.325 174.534C240.779 174.638 238.079 175.021 235.521 174.9C235.337 174.892 235.15 174.921 234.971 174.9C234.912 174.892 234.846 174.912 234.787 174.9L231.037 170.849C228.554 167.464 227.958 163.592 228.546 159.486C229.492 152.879 236.812 146.925 243.35 146.3C245.512 146.092 247.387 146.442 249.479 146.829C247.804 141.454 248.271 135.6 251.037 130.683" fill="#5E5453"/>
<path d="M342.754 129.483C342.892 131.29 342.592 133.114 342.646 134.912C347.05 135.491 351.208 136.969 354.667 139.775C364.875 148.057 366.108 165.073 356.154 174.075C355.183 174.953 353.45 175.849 352.663 176.731C352.604 176.794 352.504 176.869 352.479 176.914L352.296 177.098C352.242 177.085 352.167 177.098 352.113 177.098C351.488 177.135 348.758 178.58 347.746 178.88C346.563 179.234 345.171 179.446 343.95 179.675C310.688 179.483 277.367 180.025 244.138 179.404C241.675 178.721 239.013 177.83 236.892 176.373C236.408 176.04 235.446 175.578 235.521 174.899C238.083 175.024 240.779 174.637 243.325 174.533C268.163 173.534 293.017 172.372 317.863 171.035C324.263 170.69 329.633 171.248 335.392 167.817C349.8 159.236 346.867 137.144 330.633 132.789C329.95 132.606 328.208 132.148 327.604 132.148H323.288C324.563 128.409 325.2 124.657 324.938 120.681C324.863 119.561 324.538 117.017 324.204 116.001C335.863 115.198 342.208 122.38 342.754 129.479V129.483Z" fill="#544B4B"/>
<path d="M295.375 96.3701C291.958 96.6199 287.921 98.2854 285.038 100.076C275.929 105.73 270.917 116.355 271.871 127.01C270.004 125.307 267.079 123.612 264.529 123.342C265.217 108.457 277.175 96.9239 291.971 96.1786C293.008 96.1245 294.4 96.0828 295.375 96.3701Z" fill="#7A6D6A"/>
<path d="M98.8415 142.04C95.6956 142.211 92.8498 144.684 91.3623 147.328C89.3706 150.871 89.0331 155.093 90.2373 158.97C88.729 158.691 87.379 158.441 85.8206 158.591C81.1081 159.04 75.829 163.337 75.1498 168.096C75.0373 163.799 77.079 159.644 80.7623 157.342C81.629 156.8 82.5665 156.388 83.5498 156.109C83.7998 156.038 86.6706 155.522 86.6665 155.664C86.6748 155.068 86.2081 154.365 86.3998 151.829C86.5123 150.326 87.2206 148.294 87.9665 146.978C90.1206 143.156 94.4748 140.887 98.8415 142.04Z" fill="#7A6D6A"/>
<path d="M91.3623 147.329C92.8498 144.681 95.6957 142.212 98.8415 142.041C99.404 142.012 100.554 141.983 101.091 142.041C102.929 142.237 105.037 143.457 106.383 144.685C105.696 137.003 109.308 129.342 115.875 125.266C117.954 123.975 120.866 122.776 123.329 122.597C133 121.894 141.15 127.752 144.108 136.749C144.35 137.482 144.583 139.318 144.637 140.122C144.825 142.986 144.366 145.693 143.446 148.386H146.558C146.996 148.386 148.246 148.719 148.741 148.849C160.446 151.988 162.558 167.914 152.175 174.101C148.025 176.574 144.154 176.174 139.537 176.42C121.629 177.382 103.708 178.218 85.804 178.939C83.9665 179.014 82.0248 179.293 80.179 179.201C80.0498 179.193 79.9123 179.214 79.7832 179.201C79.7415 179.197 79.6915 179.209 79.6498 179.201L76.9457 176.282C75.154 173.843 74.7248 171.049 75.1498 168.093C75.829 163.33 81.1082 159.037 85.8207 158.587C87.379 158.437 88.729 158.687 90.2373 158.966C89.029 155.09 89.3665 150.872 91.3623 147.325" fill="#5E5453"/>
<path d="M157.483 146.466C157.583 147.769 157.367 149.085 157.404 150.38C160.579 150.796 163.575 151.862 166.071 153.886C173.429 159.856 174.317 172.122 167.142 178.609C166.442 179.242 165.192 179.887 164.625 180.524C164.583 180.57 164.512 180.624 164.492 180.657L164.358 180.791C164.321 180.782 164.267 180.791 164.225 180.791C163.775 180.82 161.804 181.857 161.075 182.077C160.221 182.331 159.221 182.485 158.337 182.648C134.358 182.51 110.337 182.897 86.3874 182.452C84.6124 181.961 82.6957 181.315 81.1624 180.266C80.8124 180.025 80.1207 179.691 80.1749 179.204C82.0207 179.292 83.9665 179.017 85.7999 178.942C103.704 178.222 121.621 177.385 139.533 176.423C144.146 176.173 148.017 176.577 152.171 174.104C162.558 167.921 160.442 151.991 148.737 148.852C148.242 148.719 146.992 148.39 146.554 148.39H143.442C144.358 145.696 144.821 142.989 144.633 140.125C144.579 139.317 144.346 137.485 144.104 136.752C152.508 136.174 157.083 141.353 157.479 146.47L157.483 146.466Z" fill="#544B4B"/>
<path d="M123.329 122.597C120.867 122.776 117.954 123.979 115.875 125.266C109.308 129.342 105.696 136.999 106.383 144.685C105.037 143.456 102.929 142.237 101.092 142.041C101.587 131.311 110.208 122.997 120.875 122.46C121.621 122.422 122.625 122.389 123.329 122.597Z" fill="#7A6D6A"/>
<path d="M183.817 171.677C179.883 171.889 176.321 174.983 174.462 178.289C171.971 182.723 171.55 188.002 173.058 192.849C171.171 192.499 169.483 192.187 167.533 192.374C161.642 192.936 155.037 198.307 154.187 204.265C154.046 198.89 156.6 193.694 161.204 190.813C162.287 190.134 163.462 189.618 164.692 189.268C165.004 189.18 168.592 188.531 168.592 188.714C168.604 187.969 168.021 187.086 168.258 183.918C168.4 182.04 169.287 179.5 170.217 177.851C172.912 173.072 178.358 170.236 183.821 171.677H183.817Z" fill="#7A6D6A"/>
<path d="M174.462 178.288C176.325 174.978 179.883 171.889 183.817 171.676C184.521 171.639 185.962 171.605 186.629 171.676C188.929 171.922 191.567 173.45 193.25 174.986C192.387 165.377 196.908 155.8 205.121 150.7C207.721 149.085 211.362 147.586 214.442 147.361C226.533 146.478 236.729 153.81 240.433 165.06C240.733 165.976 241.029 168.27 241.096 169.282C241.329 172.867 240.754 176.248 239.608 179.62H243.5C244.046 179.62 245.612 180.033 246.229 180.199C260.867 184.125 263.508 204.044 250.521 211.78C245.329 214.873 240.487 214.37 234.717 214.682C212.317 215.885 189.908 216.93 167.517 217.834C165.221 217.925 162.787 218.275 160.479 218.163C160.317 218.154 160.146 218.179 159.983 218.163C159.929 218.158 159.871 218.171 159.817 218.163L156.437 214.511C154.2 211.459 153.662 207.97 154.187 204.269C155.037 198.315 161.642 192.944 167.533 192.378C169.483 192.19 171.171 192.502 173.058 192.852C171.55 188.006 171.971 182.726 174.462 178.292" fill="#5E5453"/>
<path d="M257.158 177.21C257.283 178.838 257.012 180.483 257.058 182.107C261.029 182.627 264.779 183.963 267.896 186.491C277.096 193.956 278.212 209.299 269.237 217.414C268.362 218.205 266.8 219.013 266.092 219.812C266.042 219.87 265.95 219.937 265.925 219.978L265.758 220.145C265.712 220.137 265.642 220.145 265.592 220.145C265.025 220.178 262.567 221.482 261.654 221.752C260.587 222.069 259.333 222.26 258.233 222.468C228.246 222.298 198.204 222.781 168.246 222.223C166.025 221.606 163.625 220.803 161.712 219.487C161.275 219.187 160.408 218.771 160.475 218.159C162.783 218.271 165.217 217.922 167.512 217.83C189.904 216.927 212.312 215.882 234.712 214.678C240.483 214.366 245.325 214.87 250.517 211.776C263.504 204.04 260.862 184.122 246.225 180.195C245.608 180.029 244.037 179.617 243.496 179.617H239.604C240.75 176.248 241.325 172.863 241.092 169.279C241.025 168.271 240.733 165.973 240.429 165.057C250.942 164.332 256.662 170.807 257.154 177.21H257.158Z" fill="#544B4B"/>
<path d="M214.442 147.357C211.362 147.582 207.721 149.085 205.121 150.696C196.908 155.793 192.387 165.373 193.25 174.983C191.567 173.446 188.929 171.918 186.629 171.673C187.25 158.253 198.029 147.853 211.371 147.182C212.304 147.137 213.558 147.095 214.442 147.357Z" fill="#7A6D6A"/>
</svg>
