<svg width="450" height="209" viewBox="0 0 450 209" fill="none" xmlns="http://www.w3.org/2000/svg">
<mask id="mask0_305_96027" style="mask-type:alpha" maskUnits="userSpaceOnUse" x="0" y="0" width="450" height="209">
<path d="M450 0H0V208.333H450V0Z" fill="white"/>
</mask>
<g mask="url(#mask0_305_96027)">
<path d="M181.571 188.371C224.896 187.842 268.5 187.984 311.829 188.371C372.375 188.913 435.454 192.754 495.667 197.209C501.846 197.667 543.821 201.605 545.2 203.555C547.954 207.446 541.138 208.717 538.463 209.288C504.067 216.63 459.408 215.009 423.708 216.171C302.029 220.138 178.904 220.384 57.4041 214.967C33.2375 213.888 -6.59588 215.246 -28.4625 207.667C-29.6125 207.271 -32.4917 207.971 -31.4417 205.459C-30.1042 202.259 -24.0584 201.992 -20.8709 201.384C3.92496 196.634 34.575 197.092 60.1166 195.913C100.417 194.055 141.083 188.863 181.567 188.371H181.571Z" fill="#E47728"/>
<path d="M88.5832 113.072C87.9082 116.556 87.4957 120.276 87.0332 123.81C86.5332 127.639 86.7665 134.489 83.9707 137.256C82.7374 138.476 80.6124 138.589 79.0165 139.376C75.4915 141.118 73.5832 143.972 72.6624 147.668C77.1249 148.947 80.904 149.301 85.3915 147.918C90.3332 146.393 93.779 141.964 99.1207 141.401C111.975 140.051 111.446 151.101 118.762 157.297C123.471 161.285 130.454 162.085 136.087 159.697L141.85 156.322C141.875 156.268 141.825 156.181 141.85 156.126L142.046 155.735C142.254 155.218 142.546 154.826 142.733 154.16C144.262 148.676 142.258 142.91 137.954 139.322C138.875 137.985 139.629 136.189 139.862 134.581C139.937 134.068 140.092 132.422 140.079 131.947C136.554 132.081 133.292 132.014 130.058 130.472C121.175 126.239 121.533 115.456 109.462 113.526C103.371 112.551 98.3999 115.922 92.1665 114.114C91.0124 113.776 89.7207 112.868 88.5832 113.081V113.072Z" fill="#A0D92A"/>
<path d="M88.5833 113.072C89.7249 112.859 91.0124 113.772 92.1666 114.105C98.3999 115.918 103.367 112.547 109.462 113.518C121.537 115.447 121.179 126.23 130.058 130.463C133.296 132.005 136.554 132.072 140.079 131.938C139.987 127.718 137.421 123.472 133.725 121.488C131.742 120.422 129.583 120.393 127.887 118.68C125.821 116.588 123.696 107.888 122.287 104.626C118.462 95.7801 110.075 90.3926 100.504 94.4259C93.0624 97.5592 90.0166 105.684 88.5833 113.072Z" fill="#A0D92A"/>
<path d="M72.6624 147.664C71.1999 153.527 72.6291 158.997 77.7124 162.564C83.2249 166.435 89.9041 165.202 96.0541 163.781C96.0207 163.756 95.9832 163.314 95.6749 163.085C95.1957 162.735 93.5166 161.793 93.3249 161.502C93.0374 161.068 93.0416 160.218 93.4999 159.947C94.6832 159.243 97.8291 161.96 99.5957 162.014C100.596 162.043 101.358 161.385 102.346 161.422C102.292 161.218 102.379 160.927 102.162 160.731L94.0832 152.293C93.2791 151.081 94.2666 149.739 95.6041 150.168C96.7332 150.531 100.975 153.906 102.333 154.852C102.729 155.127 104.883 157.102 105.292 156.706L106.475 144.818C106.562 143.843 109.108 144.76 109.225 145.406L108.637 161.818C109.1 162.247 112.15 160.206 112.396 160.047C113.308 159.452 113.904 159.168 114.404 159.543C115.596 160.439 114.037 161.535 113.258 162.422C113.037 162.672 112.446 163.127 112.396 163.189C122.292 163.602 136.525 167.489 141.854 156.318L136.092 159.693C130.458 162.081 123.475 161.281 118.767 157.293C111.45 151.097 111.979 140.047 99.1249 141.397C93.7832 141.96 90.3374 146.389 85.3957 147.914C80.9082 149.302 77.1291 148.943 72.6666 147.664H72.6624Z" fill="#62B529"/>
<path d="M115.396 158.884C114.346 157.459 109.096 162.243 108.633 161.814L109.221 145.401C109.104 144.755 106.558 143.839 106.471 144.814L105.287 156.701C104.879 157.097 102.721 155.118 102.329 154.847C100.971 153.901 96.7291 150.53 95.5999 150.164C94.2624 149.734 93.2708 151.076 94.0791 152.289L102.158 160.726C102.375 160.922 102.287 161.214 102.342 161.418C102.554 162.184 102.604 162.747 102.537 163.58C102.342 163.78 100.467 162.755 100.108 162.564C99.8333 162.418 99.4874 162.484 99.5916 162.009C97.8249 161.959 94.6791 159.239 93.4958 159.943C93.0374 160.218 93.0333 161.064 93.3208 161.497C93.5124 161.789 95.1916 162.73 95.6708 163.08C95.9833 163.309 96.0208 163.751 96.0499 163.776C96.1083 163.818 96.6083 163.789 96.9041 163.997C98.6124 165.214 100.308 166.459 102.104 167.547L102.158 167.797L100.35 197.139C99.7708 199.905 97.3166 206.105 97.3166 206.105C103.592 206.047 110.412 206.022 116.687 206.105L110.242 198.105L109.017 171.339L109.35 170.884C110.829 170.014 121.071 166.843 121.504 166.134C122.025 165.284 121.287 164.509 120.329 164.551C117.608 164.672 113.533 166.218 110.637 166.672C110.292 166.726 109.954 166.743 109.608 166.722C110.55 165.784 111.287 164.659 112.154 163.668C112.437 163.343 116.271 160.08 115.387 158.88L115.396 158.884Z" fill="#BE6632"/>
<path d="M141.85 156.118C141.904 155.997 141.979 155.897 142.046 155.727L141.85 156.118Z" fill="#046743"/>
<path d="M99.5875 162.013C99.4833 162.488 99.8291 162.422 100.104 162.568C100.467 162.759 102.337 163.788 102.533 163.584C102.6 162.751 102.55 162.188 102.337 161.422C101.35 161.38 100.587 162.038 99.5875 162.013Z" fill="#FBE2AF"/>
<path d="M164.05 125.988C163.554 128.534 163.254 131.259 162.917 133.838C162.55 136.638 162.721 141.65 160.675 143.671C159.771 144.563 158.221 144.646 157.05 145.221C154.471 146.492 153.079 148.584 152.404 151.284C155.667 152.217 158.429 152.479 161.713 151.467C165.325 150.35 167.846 147.113 171.75 146.7C181.15 145.713 180.763 153.796 186.113 158.325C189.554 161.242 194.663 161.825 198.783 160.079L203 157.609C203.017 157.571 202.983 157.504 203 157.467L203.142 157.179C203.292 156.8 203.508 156.513 203.642 156.029C204.758 152.021 203.296 147.8 200.146 145.179C200.817 144.204 201.371 142.888 201.542 141.713C201.596 141.338 201.708 140.134 201.7 139.788C199.121 139.884 196.738 139.834 194.371 138.709C187.875 135.613 188.138 127.729 179.308 126.317C174.854 125.604 171.221 128.071 166.663 126.746C165.817 126.5 164.875 125.834 164.042 125.988H164.05Z" fill="#A0D92A"/>
<path d="M164.05 125.988C164.884 125.834 165.825 126.501 166.671 126.746C171.229 128.071 174.863 125.605 179.317 126.317C188.146 127.73 187.884 135.613 194.379 138.709C196.746 139.838 199.129 139.884 201.708 139.788C201.642 136.701 199.767 133.596 197.063 132.146C195.613 131.367 194.034 131.346 192.792 130.092C191.279 128.563 189.725 122.201 188.696 119.813C185.9 113.342 179.767 109.405 172.767 112.355C167.325 114.646 165.1 120.588 164.05 125.988Z" fill="#A0D92A"/>
<path d="M152.404 151.288C151.334 155.576 152.379 159.576 156.096 162.184C160.129 165.018 165.013 164.113 169.509 163.072C169.484 163.055 169.459 162.73 169.229 162.563C168.879 162.305 167.65 161.618 167.509 161.405C167.3 161.088 167.3 160.468 167.638 160.268C168.504 159.751 170.804 161.738 172.096 161.776C172.829 161.797 173.384 161.318 174.109 161.347C174.067 161.197 174.134 160.984 173.971 160.843L168.063 154.672C167.475 153.784 168.196 152.801 169.175 153.118C170 153.384 173.1 155.851 174.096 156.543C174.384 156.743 175.963 158.188 176.259 157.901L177.125 149.205C177.188 148.493 179.05 149.163 179.138 149.634L178.709 161.634C179.046 161.947 181.279 160.455 181.459 160.338C182.125 159.901 182.563 159.697 182.929 159.972C183.8 160.626 182.663 161.43 182.092 162.076C181.929 162.259 181.5 162.593 181.459 162.634C188.696 162.934 199.104 165.78 203 157.609L198.784 160.08C194.663 161.826 189.554 161.243 186.113 158.326C180.763 153.797 181.15 145.713 171.75 146.701C167.846 147.109 165.325 150.351 161.713 151.468C158.429 152.48 155.667 152.222 152.404 151.284V151.288Z" fill="#62B529"/>
<path d="M183.659 159.492C182.892 158.45 179.05 161.95 178.713 161.634L179.142 149.634C179.054 149.163 177.196 148.492 177.129 149.205L176.263 157.9C175.967 158.188 174.388 156.742 174.1 156.542C173.104 155.85 170.004 153.384 169.179 153.117C168.2 152.8 167.475 153.784 168.067 154.671L173.975 160.842C174.134 160.984 174.071 161.2 174.113 161.346C174.267 161.905 174.304 162.317 174.254 162.925C174.113 163.071 172.742 162.321 172.475 162.18C172.275 162.071 172.021 162.121 172.096 161.775C170.804 161.738 168.504 159.75 167.638 160.267C167.304 160.467 167.3 161.088 167.509 161.405C167.65 161.617 168.875 162.305 169.229 162.563C169.459 162.73 169.484 163.055 169.509 163.071C169.55 163.1 169.917 163.08 170.134 163.234C171.384 164.121 172.625 165.034 173.934 165.83L173.975 166.013L172.654 187.471C172.229 189.492 170.438 194.03 170.438 194.03C175.029 193.984 180.013 193.971 184.604 194.03L179.892 188.18L178.996 168.605L179.242 168.271C180.321 167.634 187.813 165.317 188.129 164.796C188.509 164.175 187.971 163.609 187.271 163.638C185.284 163.725 182.3 164.859 180.184 165.188C179.934 165.225 179.684 165.242 179.429 165.221C180.121 164.538 180.659 163.713 181.292 162.988C181.5 162.75 184.304 160.363 183.659 159.488V159.492Z" fill="#BE6632"/>
<path d="M203 157.467C203.038 157.38 203.096 157.305 203.142 157.18L203 157.467Z" fill="#046743"/>
<path d="M172.096 161.78C172.021 162.126 172.271 162.076 172.475 162.184C172.738 162.326 174.109 163.076 174.254 162.93C174.304 162.322 174.267 161.909 174.113 161.351C173.388 161.322 172.834 161.805 172.1 161.78H172.096Z" fill="#FBE2AF"/>
<path d="M451.404 40.4008C452.512 46.1092 453.187 52.2133 453.942 58.0008C454.758 64.2758 454.379 75.5092 458.963 80.0425C460.988 82.0425 464.467 82.2258 467.088 83.5175C472.867 86.3675 475.992 91.0508 477.5 97.1092C470.188 99.205 463.992 99.7883 456.633 97.5175C448.533 95.0133 442.883 87.755 434.129 86.8342C413.058 84.6217 413.925 102.734 401.933 112.892C394.217 119.426 382.767 120.742 373.529 116.826L364.083 111.292C364.042 111.205 364.125 111.059 364.083 110.972L363.763 110.326C363.425 109.476 362.942 108.834 362.638 107.747C360.129 98.7592 363.417 89.305 370.471 83.4258C368.963 81.2383 367.725 78.2925 367.337 75.655C367.217 74.8175 366.963 72.1133 366.979 71.3383C372.758 71.555 378.104 71.4425 383.408 68.9175C397.967 61.98 397.383 44.3008 417.175 41.1383C427.162 39.5425 435.308 45.0675 445.525 42.1008C447.421 41.5508 449.533 40.055 451.4 40.405L451.404 40.4008Z" fill="#A0D92A"/>
<path d="M451.404 40.4004C449.533 40.0504 447.421 41.5462 445.529 42.0962C435.313 45.0629 427.167 39.5379 417.179 41.1337C397.388 44.2962 397.975 61.9753 383.413 68.9128C378.108 71.442 372.763 71.5503 366.983 71.3337C367.138 64.4128 371.338 57.4587 377.4 54.2004C380.654 52.4545 384.192 52.4045 386.971 49.592C390.358 46.1629 393.842 31.9004 396.154 26.5545C402.425 12.0504 416.171 3.22535 431.863 9.83369C444.058 14.9712 449.054 28.2879 451.404 40.3962V40.4004Z" fill="#A0D92A"/>
<path d="M477.504 97.1126C479.904 106.725 477.562 115.688 469.229 121.542C460.192 127.888 449.242 125.863 439.162 123.533C439.217 123.496 439.275 122.767 439.787 122.392C440.575 121.817 443.325 120.275 443.642 119.796C444.112 119.083 444.108 117.696 443.354 117.246C441.412 116.092 436.258 120.546 433.362 120.629C431.721 120.675 430.471 119.596 428.85 119.663C428.942 119.329 428.796 118.85 429.154 118.529L442.396 104.696C443.717 102.708 442.092 100.504 439.9 101.213C438.046 101.808 431.1 107.338 428.867 108.888C428.221 109.338 424.683 112.579 424.017 111.929L422.079 92.4376C421.937 90.8376 417.767 92.3418 417.571 93.4001L418.537 120.304C417.779 121.008 412.775 117.663 412.375 117.4C410.879 116.425 409.904 115.958 409.079 116.575C407.125 118.042 409.679 119.842 410.958 121.292C411.321 121.704 412.287 122.45 412.375 122.546C396.154 123.221 372.825 129.596 364.087 111.283L373.533 116.817C382.771 120.733 394.221 119.417 401.937 112.883C413.929 102.729 413.062 84.6126 434.133 86.8251C442.887 87.7459 448.537 95.0043 456.637 97.5084C463.996 99.7834 470.192 99.1959 477.504 97.1001V97.1126Z" fill="#62B529"/>
<path d="M407.45 115.505C409.171 113.167 417.779 121.013 418.538 120.309L417.571 93.4046C417.763 92.3463 421.938 90.8421 422.079 92.4421L424.017 111.934C424.683 112.58 428.221 109.338 428.867 108.892C431.096 107.342 438.046 101.813 439.9 101.217C442.092 100.513 443.717 102.713 442.396 104.7L429.154 118.534C428.796 118.855 428.942 119.334 428.85 119.667C428.504 120.921 428.421 121.846 428.529 123.209C428.85 123.538 431.921 121.855 432.513 121.542C432.967 121.3 433.533 121.413 433.358 120.634C436.254 120.55 441.413 116.092 443.35 117.25C444.1 117.696 444.104 119.088 443.638 119.8C443.321 120.28 440.571 121.821 439.783 122.396C439.275 122.767 439.213 123.5 439.158 123.538C439.063 123.609 438.246 123.555 437.758 123.905C434.954 125.896 432.175 127.942 429.238 129.725L429.146 130.134L432.108 178.234C433.058 182.767 437.079 192.934 437.079 192.934C426.792 192.834 415.613 192.8 405.325 192.934L415.892 179.817L417.9 135.942L417.35 135.196C414.925 133.771 398.138 128.571 397.425 127.409C396.571 126.017 397.779 124.746 399.35 124.817C403.808 125.013 410.492 127.55 415.233 128.292C415.796 128.38 416.358 128.409 416.925 128.371C415.379 126.834 414.171 124.992 412.75 123.363C412.283 122.83 406 117.484 407.446 115.513L407.45 115.505Z" fill="#BE6632"/>
<path d="M364.083 110.967C363.996 110.771 363.875 110.605 363.763 110.321L364.083 110.967Z" fill="#046743"/>
<path d="M433.358 120.634C433.529 121.413 432.963 121.3 432.513 121.542C431.921 121.855 428.85 123.542 428.529 123.209C428.421 121.846 428.504 120.921 428.85 119.667C430.471 119.6 431.721 120.68 433.363 120.634H433.358Z" fill="#FBE2AF"/>
<path d="M51.1167 82.3377C52.0167 86.9835 52.5708 91.9543 53.1833 96.6668C53.85 101.775 53.5417 110.921 57.275 114.613C58.9208 116.242 61.7542 116.388 63.8917 117.442C68.5958 119.763 71.1417 123.575 72.3708 128.508C66.4167 130.213 61.3708 130.692 55.3792 128.838C48.7833 126.8 44.1833 120.888 37.0542 120.138C19.8958 118.333 20.6042 133.083 10.8375 141.354C4.55416 146.675 -4.76667 147.746 -12.2875 144.558L-19.9792 140.05C-20.0125 139.979 -19.9458 139.863 -19.9792 139.788L-20.2417 139.263C-20.5167 138.571 -20.9083 138.05 -21.1583 137.163C-23.2 129.846 -20.525 122.146 -14.7792 117.358C-16.0083 115.575 -17.0125 113.179 -17.3292 111.029C-17.4292 110.346 -17.6333 108.146 -17.6208 107.517C-12.9167 107.692 -8.5625 107.604 -4.24584 105.546C7.60833 99.896 7.13333 85.5043 23.2458 82.9293C31.3792 81.6293 38.0083 86.1293 46.3292 83.7127C47.8708 83.2627 49.5917 82.046 51.1125 82.3335L51.1167 82.3377Z" fill="#A0D92A"/>
<path d="M51.1166 82.3376C49.5958 82.0542 47.875 83.2709 46.3333 83.7167C38.0166 86.1334 31.3833 81.6334 23.25 82.9334C7.13747 85.5084 7.61247 99.9001 -4.2417 105.55C-8.55837 107.608 -12.9125 107.696 -17.6167 107.521C-17.4917 101.883 -14.0709 96.2209 -9.13337 93.5709C-6.48337 92.1501 -3.6042 92.1084 -1.3417 89.8209C1.41663 87.0292 4.25413 75.4167 6.1333 71.0626C11.2375 59.2542 22.4333 52.0667 35.2083 57.4501C45.1375 61.6334 49.2041 72.4751 51.1166 82.3376Z" fill="#A0D92A"/>
<path d="M72.3709 128.513C74.3251 136.338 72.4167 143.638 65.6334 148.404C58.2751 153.571 49.3626 151.921 41.1501 150.025C41.1917 149.996 41.2417 149.4 41.6584 149.096C42.3001 148.629 44.5376 147.371 44.7959 146.983C45.1792 146.404 45.1751 145.275 44.5626 144.908C42.9834 143.967 38.7834 147.596 36.4251 147.667C35.0876 147.704 34.0709 146.825 32.7501 146.879C32.8251 146.608 32.7042 146.221 32.9959 145.958L43.7792 134.696C44.8542 133.079 43.5334 131.283 41.7459 131.858C40.2376 132.346 34.5792 136.846 32.7626 138.108C32.2376 138.475 29.3584 141.113 28.8126 140.588L27.2334 124.717C27.1167 123.413 23.7209 124.638 23.5626 125.5L24.3501 147.404C23.7334 147.975 19.6584 145.254 19.3334 145.038C18.1126 144.242 17.3209 143.863 16.6501 144.367C15.0584 145.563 17.1376 147.025 18.1792 148.208C18.4751 148.542 19.2626 149.15 19.3334 149.229C6.12506 149.779 -12.8708 154.971 -19.9833 140.058L-12.2916 144.567C-4.77078 147.754 4.55006 146.683 10.8334 141.363C20.6001 133.096 19.8917 118.346 37.0501 120.146C44.1792 120.896 48.7792 126.808 55.375 128.846C61.3667 130.696 66.4125 130.221 72.3667 128.517L72.3709 128.513Z" fill="#62B529"/>
<path d="M15.3291 143.488C16.7291 141.584 23.7416 147.971 24.3583 147.4L23.5708 125.496C23.7291 124.638 27.1249 123.413 27.2416 124.713L28.8208 140.584C29.3624 141.109 32.2458 138.471 32.7708 138.104C34.5874 136.842 40.2458 132.342 41.7541 131.854C43.5416 131.279 44.8624 133.075 43.7874 134.692L33.0041 145.954C32.7124 146.217 32.8333 146.609 32.7583 146.875C32.4749 147.896 32.4083 148.65 32.4958 149.759C32.7583 150.029 35.2583 148.654 35.7374 148.4C36.1041 148.204 36.5666 148.296 36.4291 147.663C38.7874 147.596 42.9874 143.967 44.5666 144.904C45.1791 145.267 45.1833 146.4 44.7999 146.979C44.5416 147.371 42.3041 148.625 41.6624 149.092C41.2458 149.396 41.1958 149.988 41.1541 150.021C41.0749 150.079 40.4124 150.038 40.0166 150.317C37.7333 151.938 35.4708 153.604 33.0791 155.059L33.0041 155.392L35.4166 194.559C36.1916 198.25 39.4666 206.529 39.4666 206.529C31.0874 206.45 21.9874 206.421 13.6083 206.529L22.2124 195.85L23.8458 160.125L23.3999 159.521C21.4249 158.363 7.75409 154.125 7.17492 153.179C6.47909 152.046 7.46659 151.013 8.74159 151.067C12.3708 151.229 17.8124 153.292 21.6749 153.896C22.1333 153.967 22.5874 153.992 23.0499 153.959C21.7916 152.709 20.8083 151.209 19.6499 149.879C19.2708 149.442 14.1541 145.092 15.3333 143.488H15.3291Z" fill="#BE6632"/>
<path d="M36.4251 147.667C36.5626 148.3 36.1042 148.209 35.7334 148.404C35.2501 148.659 32.7501 150.034 32.4917 149.763C32.4042 148.654 32.4709 147.9 32.7542 146.879C34.0751 146.825 35.0917 147.704 36.4292 147.667H36.4251Z" fill="#FBE2AF"/>
</g>
</svg>
