<svg width="188" height="43" viewBox="0 0 188 43" fill="none" xmlns="http://www.w3.org/2000/svg">
<path d="M166.846 0.667969H21.013C9.50709 0.667969 0.179688 9.99537 0.179688 21.5013C0.179688 33.0072 9.50709 42.3346 21.013 42.3346H166.846C178.352 42.3346 187.68 33.0072 187.68 21.5013C187.68 9.99537 178.352 0.667969 166.846 0.667969Z" fill="#00B14F"/>
<path d="M40.8404 18.3521C39.5362 18.3521 38.7112 19.0188 38.7112 19.923C38.707 20.9396 39.8112 21.3272 40.6403 21.5397L41.6779 21.8105C43.0237 22.1438 44.732 22.8813 44.732 24.7938C44.732 26.5938 43.2987 27.9022 40.8028 27.9022C38.307 27.9022 36.9362 26.7146 36.832 24.7938H38.4362C38.5279 25.9479 39.557 26.498 40.7904 26.498C42.1529 26.498 43.1445 25.8147 43.1445 24.7772C43.1445 23.8355 42.2695 23.4605 41.132 23.1605L39.8778 22.8188C38.1737 22.3563 37.1153 21.4938 37.1153 20.0146C37.1153 18.1854 38.7487 16.9688 40.8778 16.9688C43.007 16.9688 44.5362 18.2021 44.582 19.9021H43.0362C42.9237 18.9229 42.057 18.3521 40.8404 18.3521Z" fill="white"/>
<path d="M48.0578 27.7258H46.5078V17.1133H48.0369V21.0633H48.137C48.512 20.2049 49.2578 19.6633 50.4953 19.6633C52.1328 19.6633 53.2203 20.68 53.2203 22.6633V27.7258H51.6703V22.8508C51.6703 21.6841 51.0328 21.005 49.9661 21.005C48.8994 21.005 48.0578 21.73 48.0578 23.0008V27.7258Z" fill="white"/>
<path d="M54.9104 25.4771C54.9104 23.6687 56.4562 23.2729 57.9604 23.0979C59.3896 22.9313 59.9729 22.9438 59.9729 22.3771V22.3396C59.9729 21.4396 59.4604 20.9146 58.4604 20.9146C57.4604 20.9146 56.8396 21.4604 56.6104 22.0229L55.1521 21.6895C55.6687 20.2395 56.9979 19.6562 58.4354 19.6562C59.6979 19.6562 61.5229 20.1187 61.5229 22.4354V27.7187H60.0104V26.6312H59.9479C59.6521 27.2271 58.9104 27.8938 57.5937 27.8938C56.0812 27.8938 54.9062 27.0354 54.9062 25.4687L54.9104 25.4771ZM59.9771 24.8562V23.8313C59.7521 24.0521 58.5604 24.1896 58.0604 24.2563C57.1646 24.3771 56.427 24.6729 56.427 25.4979C56.427 26.2646 57.0604 26.6603 57.9354 26.6603C59.227 26.6603 59.9771 25.8021 59.9771 24.8562Z" fill="white"/>
<path d="M63.5859 19.7654H65.0818V21.0278H65.1651C65.4568 20.1736 66.2526 19.6445 67.1859 19.6445C67.3818 19.6445 67.6901 19.6611 67.8443 19.682V21.1653C67.7193 21.1278 67.3568 21.0737 67.0359 21.0737C65.9359 21.0737 65.1359 21.8237 65.1359 22.8654V27.7278H63.5859V19.7696V19.7654Z" fill="white"/>
<path d="M68.5391 23.7974C68.5391 21.3515 70.0015 19.6641 72.2182 19.6641C74.0224 19.6641 75.7432 20.789 75.7432 23.664V24.214H70.0849C70.1265 25.7474 71.0182 26.6099 72.3432 26.6099C73.2224 26.6099 73.8974 26.2265 74.1766 25.4765L75.6432 25.739C75.289 27.0348 74.064 27.8891 72.3265 27.8891C69.9807 27.8891 68.5391 26.2724 68.5391 23.8015V23.7974ZM74.2224 23.0515C74.2182 21.8348 73.4307 20.9432 72.2266 20.9432C71.0224 20.9432 70.1474 21.9223 70.0849 23.0515H74.2182H74.2224Z" fill="white"/>
<path d="M85.0451 21.0094H83.4117V25.3886C83.4117 26.2844 83.8617 26.451 84.3659 26.451C84.6159 26.451 84.8075 26.4052 84.9117 26.3844L85.1909 27.6636C85.0076 27.7302 84.6784 27.826 84.1867 27.8302C82.9659 27.8552 81.8617 27.1552 81.8659 25.7094V21.0094H80.6992V19.7677H81.8659V17.8594H83.4159V19.7677H85.0492V21.0094H85.0451Z" fill="white"/>
<path d="M88.4641 27.7258H86.9141V17.1133H88.4432V21.0633H88.5432C88.9182 20.2049 89.664 19.6633 90.9015 19.6633C92.539 19.6633 93.6266 20.68 93.6266 22.6633V27.7258H92.0766V22.8508C92.0766 21.6841 91.4391 21.005 90.3724 21.005C89.3057 21.005 88.4641 21.73 88.4641 23.0008V27.7258Z" fill="white"/>
<path d="M95.4922 17.6167C95.4922 17.1083 95.9338 16.6875 96.4713 16.6875C97.0088 16.6875 97.4506 17.1083 97.4506 17.6167C97.4506 18.125 97.0047 18.5375 96.4713 18.5375C95.938 18.5375 95.4922 18.1208 95.4922 17.6167ZM95.688 19.7667H97.238V27.725H95.688V19.7667Z" fill="white"/>
<path d="M103.881 21.9599C103.698 21.4266 103.256 20.8932 102.29 20.8932C101.41 20.8932 100.744 21.3265 100.752 21.939C100.748 22.4765 101.127 22.7724 102.002 22.9807L103.265 23.2724C104.727 23.6099 105.44 24.3057 105.44 25.4265C105.44 26.8682 104.106 27.8891 102.185 27.8891C100.398 27.8891 99.2271 27.0974 98.9688 25.6849L100.465 25.4557C100.652 26.239 101.248 26.6391 102.173 26.6391C103.19 26.6391 103.848 26.1557 103.848 25.539C103.848 25.0432 103.49 24.7015 102.723 24.5307L101.377 24.2349C99.8854 23.9016 99.2021 23.1515 99.2021 22.0224C99.2021 20.614 100.477 19.6641 102.273 19.6641C104.069 19.6641 104.96 20.4724 105.285 21.7099L103.881 21.9599Z" fill="white"/>
<path d="M110.645 23.7974C110.645 21.3515 112.107 19.6641 114.324 19.6641C116.128 19.6641 117.849 20.789 117.849 23.664V24.214H112.19C112.232 25.7474 113.124 26.6099 114.449 26.6099C115.328 26.6099 116.003 26.2265 116.282 25.4765L117.749 25.739C117.395 27.0348 116.17 27.8891 114.432 27.8891C112.086 27.8891 110.645 26.2724 110.645 23.8015V23.7974ZM116.328 23.0515C116.324 21.8348 115.536 20.9432 114.332 20.9432C113.128 20.9432 112.253 21.9223 112.19 23.0515H116.324H116.328Z" fill="white"/>
<path d="M123.352 21.0089H121.635V27.7255H120.081V21.0089H118.852V19.7672H120.081V18.8463C120.081 17.3546 121.185 16.6172 122.443 16.6172C123.068 16.6172 123.522 16.7464 123.739 16.8297L123.377 18.0839C123.231 18.038 123.002 17.963 122.681 17.963C121.922 17.963 121.635 18.3463 121.635 19.0505V19.7672H123.352V21.0089Z" fill="white"/>
<path d="M128.734 21.0089H127.018V27.7255H125.464V21.0089H124.234V19.7672H125.464V18.8463C125.464 17.3546 126.568 16.6172 127.826 16.6172C128.451 16.6172 128.905 16.7464 129.122 16.8297L128.759 18.0839C128.614 18.038 128.384 17.963 128.064 17.963C127.305 17.963 127.018 18.3463 127.018 19.0505V19.7672H128.734V21.0089Z" fill="white"/>
<path d="M129.652 23.7849C129.652 21.3099 131.119 19.6641 133.361 19.6641C135.602 19.6641 137.069 21.3057 137.069 23.7849C137.069 26.264 135.602 27.8891 133.361 27.8891C131.119 27.8891 129.652 26.2474 129.652 23.7849ZM135.507 23.7807C135.507 22.2557 134.823 20.964 133.365 20.964C131.907 20.964 131.215 22.2598 131.215 23.7807C131.215 25.3015 131.898 26.589 133.365 26.589C134.832 26.589 135.507 25.3098 135.507 23.7807Z" fill="white"/>
<path d="M138.797 19.7654H140.293V21.0278H140.376C140.668 20.1736 141.464 19.6445 142.397 19.6445C142.593 19.6445 142.901 19.6611 143.055 19.682V21.1653C142.93 21.1278 142.568 21.0737 142.247 21.0737C141.147 21.0737 140.347 21.8237 140.347 22.8654V27.7278H138.797V19.7696V19.7654Z" fill="white"/>
<path d="M148.58 21.0094H146.947V25.3886C146.947 26.2844 147.397 26.451 147.901 26.451C148.151 26.451 148.343 26.4052 148.447 26.3844L148.726 27.6636C148.543 27.7302 148.214 27.826 147.722 27.8302C146.501 27.8552 145.397 27.1552 145.401 25.7094V21.0094H144.234V19.7677H145.401V17.8594H146.951V19.7677H148.584V21.0094H148.58Z" fill="white"/>
</svg>
