<svg width="188" height="43" viewBox="0 0 188 43" fill="none" xmlns="http://www.w3.org/2000/svg">
<path d="M166.815 0.695312H20.9818C9.47584 0.695312 0.148438 10.0227 0.148438 21.5286C0.148438 33.0346 9.47584 42.362 20.9818 42.362H166.815C178.321 42.362 187.648 33.0346 187.648 21.5286C187.648 10.0227 178.321 0.695312 166.815 0.695312Z" fill="#00B14F"/>
<path d="M40.8013 18.3833C39.4971 18.3833 38.6721 19.0499 38.6721 19.9541C38.668 20.9708 39.7721 21.3583 40.6013 21.5708L41.6388 21.8416C42.9846 22.1749 44.693 22.9124 44.693 24.8249C44.693 26.6249 43.2596 27.9333 40.7638 27.9333C38.268 27.9333 36.8971 26.7457 36.793 24.8249H38.3972C38.4888 25.9791 39.518 26.5291 40.7513 26.5291C42.1138 26.5291 43.1055 25.8458 43.1055 24.8083C43.1055 23.8667 42.2305 23.4916 41.093 23.1916L39.8388 22.8499C38.1347 22.3874 37.0763 21.5249 37.0763 20.0458C37.0763 18.2166 38.7097 17 40.8388 17C42.968 17 44.4972 18.2332 44.543 19.9332H42.9971C42.8846 18.9541 42.018 18.3833 40.8013 18.3833Z" fill="white"/>
<path d="M48.0226 27.7531H46.4727V17.1406H48.0018V21.0906H48.1018C48.4768 20.2323 49.2226 19.6907 50.4601 19.6907C52.0976 19.6907 53.1851 20.7073 53.1851 22.6907V27.7531H51.6351V22.8781C51.6351 21.7115 50.9976 21.0323 49.931 21.0323C48.8643 21.0323 48.0226 21.7573 48.0226 23.0282V27.7531Z" fill="white"/>
<path d="M54.8753 25.5005C54.8753 23.6922 56.4211 23.2964 57.9253 23.1214C59.3545 22.9547 59.9378 22.9672 59.9378 22.4005V22.363C59.9378 21.463 59.4253 20.938 58.4253 20.938C57.4253 20.938 56.8045 21.4838 56.5753 22.0463L55.117 21.713C55.6336 20.263 56.9628 19.6797 58.4003 19.6797C59.6628 19.6797 61.4878 20.1422 61.4878 22.4588V27.7421H59.9753V26.6547H59.9128C59.6169 27.2505 58.8753 27.9172 57.5586 27.9172C56.0461 27.9172 54.8711 27.0588 54.8711 25.4922L54.8753 25.5005ZM59.9419 24.8797V23.8547C59.7169 24.0755 58.5253 24.213 58.0253 24.2797C57.1295 24.4005 56.3919 24.6964 56.3919 25.5214C56.3919 26.288 57.0253 26.6839 57.9003 26.6839C59.1919 26.6839 59.9419 25.8255 59.9419 24.8797Z" fill="white"/>
<path d="M63.5508 19.7927H65.0466V21.0552H65.1299C65.4216 20.2011 66.2175 19.6719 67.1508 19.6719C67.3466 19.6719 67.6549 19.6885 67.8091 19.7093V21.1927C67.6841 21.1552 67.3216 21.101 67.0007 21.101C65.9007 21.101 65.1008 21.851 65.1008 22.8927V27.7552H63.5508V19.7969V19.7927Z" fill="white"/>
<path d="M68.5039 23.8286C68.5039 21.3828 69.9664 19.6953 72.1831 19.6953C73.9872 19.6953 75.708 20.8203 75.708 23.6953V24.2453H70.0497C70.0914 25.7786 70.983 26.6411 72.308 26.6411C73.1872 26.6411 73.8622 26.2578 74.1414 25.5078L75.608 25.7702C75.2539 27.0661 74.0289 27.9203 72.2914 27.9203C69.9456 27.9203 68.5039 26.3036 68.5039 23.8328V23.8286ZM74.1872 23.0828C74.183 21.8661 73.3956 20.9744 72.1914 20.9744C70.9872 20.9744 70.1122 21.9536 70.0497 23.0828H74.183H74.1872Z" fill="white"/>
<path d="M85.006 21.0367H83.3727V25.4159C83.3727 26.3117 83.8227 26.4784 84.3268 26.4784C84.5768 26.4784 84.7685 26.4325 84.8727 26.4117L85.1518 27.6909C84.9685 27.7576 84.6393 27.8534 84.1477 27.8575C82.9268 27.8825 81.8227 27.1826 81.8268 25.7368V21.0367H80.6602V19.7951H81.8268V17.8867H83.3768V19.7951H85.0102V21.0367H85.006Z" fill="white"/>
<path d="M88.425 27.7531H86.875V17.1406H88.4041V21.0906H88.5042C88.8792 20.2323 89.625 19.6907 90.8625 19.6907C92.5 19.6907 93.5875 20.7073 93.5875 22.6907V27.7531H92.0375V22.8781C92.0375 21.7115 91.4 21.0323 90.3333 21.0323C89.2666 21.0323 88.425 21.7573 88.425 23.0282V27.7531Z" fill="white"/>
<path d="M95.4609 17.644C95.4609 17.1357 95.9026 16.7148 96.4401 16.7148C96.9776 16.7148 97.4193 17.1357 97.4193 17.644C97.4193 18.1523 96.9734 18.5648 96.4401 18.5648C95.9068 18.5648 95.4609 18.1482 95.4609 17.644ZM95.6568 19.7941H97.2067V27.7523H95.6568V19.7941Z" fill="white"/>
<path d="M103.846 21.9872C103.663 21.4539 103.221 20.9206 102.254 20.9206C101.375 20.9206 100.709 21.3539 100.717 21.9664C100.713 22.5039 101.092 22.7997 101.967 23.0081L103.229 23.2997C104.692 23.6372 105.404 24.333 105.404 25.4538C105.404 26.8955 104.071 27.9164 102.15 27.9164C100.363 27.9164 99.1919 27.1247 98.9336 25.7122L100.429 25.483C100.617 26.2664 101.213 26.6664 102.138 26.6664C103.154 26.6664 103.813 26.183 103.813 25.5663C103.813 25.0705 103.454 24.7289 102.688 24.558L101.342 24.2622C99.8503 23.9289 99.167 23.1789 99.167 22.0497C99.167 20.6414 100.442 19.6914 102.238 19.6914C104.034 19.6914 104.925 20.4997 105.25 21.7372L103.846 21.9872Z" fill="white"/>
<path d="M110.605 23.8286C110.605 21.3828 112.068 19.6953 114.285 19.6953C116.089 19.6953 117.81 20.8203 117.81 23.6953V24.2453H112.151C112.193 25.7786 113.085 26.6411 114.41 26.6411C115.289 26.6411 115.964 26.2578 116.243 25.5078L117.71 25.7702C117.355 27.0661 116.13 27.9203 114.393 27.9203C112.047 27.9203 110.605 26.3036 110.605 23.8328V23.8286ZM116.289 23.0828C116.285 21.8661 115.497 20.9744 114.293 20.9744C113.089 20.9744 112.214 21.9536 112.151 23.0828H116.285H116.289Z" fill="white"/>
<path d="M123.316 21.0362H121.6V27.7528H120.046V21.0362H118.816V19.7946H120.046V18.8737C120.046 17.3821 121.15 16.6445 122.408 16.6445C123.033 16.6445 123.487 16.7737 123.704 16.857L123.341 18.1112C123.196 18.0654 122.966 17.9904 122.646 17.9904C121.887 17.9904 121.6 18.3737 121.6 19.0779V19.7946H123.316V21.0362Z" fill="white"/>
<path d="M128.695 21.0362H126.979V27.7528H125.425V21.0362H124.195V19.7946H125.425V18.8737C125.425 17.3821 126.529 16.6445 127.787 16.6445C128.412 16.6445 128.866 16.7737 129.083 16.857L128.72 18.1112C128.574 18.0654 128.345 17.9904 128.025 17.9904C127.266 17.9904 126.979 18.3737 126.979 19.0779V19.7946H128.695V21.0362Z" fill="white"/>
<path d="M129.617 23.8122C129.617 21.3372 131.084 19.6914 133.326 19.6914C135.567 19.6914 137.034 21.333 137.034 23.8122C137.034 26.2914 135.567 27.9164 133.326 27.9164C131.084 27.9164 129.617 26.2747 129.617 23.8122ZM135.471 23.808C135.471 22.283 134.788 20.9914 133.33 20.9914C131.871 20.9914 131.18 22.2872 131.18 23.808C131.18 25.3289 131.863 26.6164 133.33 26.6164C134.796 26.6164 135.471 25.3372 135.471 23.808Z" fill="white"/>
<path d="M138.758 19.7927H140.254V21.0552H140.337C140.629 20.2011 141.424 19.6719 142.358 19.6719C142.554 19.6719 142.862 19.6885 143.016 19.7093V21.1927C142.891 21.1552 142.529 21.101 142.208 21.101C141.108 21.101 140.308 21.851 140.308 22.8927V27.7552H138.758V19.7969V19.7927Z" fill="white"/>
<path d="M148.541 21.0367H146.908V25.4159C146.908 26.3117 147.358 26.4784 147.862 26.4784C148.112 26.4784 148.304 26.4325 148.408 26.4117L148.687 27.6909C148.504 27.7576 148.174 27.8534 147.683 27.8575C146.462 27.8825 145.358 27.1826 145.362 25.7368V21.0367H144.195V19.7951H145.362V17.8867H146.912V19.7951H148.545V21.0367H148.541Z" fill="white"/>
</svg>
