<svg width="136" height="11" viewBox="0 0 136 11" fill="none" xmlns="http://www.w3.org/2000/svg">
<g opacity="0.57">
<path d="M0.583496 10.0108C1.00575 10.2317 1.73094 10.2526 2.4194 10.2901C1.89158 10.0776 1.32704 9.98585 0.583496 10.0108Z" fill="#43C554"/>
<path d="M2.4322 10.2939H2.44179C2.43221 10.2939 2.42264 10.2939 2.41785 10.2939C2.42264 10.2939 2.42741 10.2939 2.4322 10.2981V10.2939Z" fill="#43C554"/>
<path d="M136 0.255859C135.83 0.260026 135.633 0.264205 135.435 0.268372C135.624 0.276705 135.816 0.276693 136 0.255859Z" fill="#43C554"/>
<path d="M34.4885 10.8599L34.5903 10.497C36.1652 10.4888 35.0503 10.9134 36.5058 10.8227C37.0765 10.3074 38.9257 10.8722 39.4256 10.6001C39.4123 10.6413 40.129 10.6578 40.0803 10.8186C40.2971 10.5383 40.8146 10.7527 41.2615 10.6826C41.4251 10.6043 41.142 10.6001 41.0182 10.5135L42.0489 10.4146C42.4515 10.5053 42.5488 10.6702 42.1153 10.699C44.805 10.798 57.7271 11.0536 60.6248 10.9134C60.2532 10.7032 59.3551 10.8475 59.0189 10.5135C59.7842 10.328 60.147 10.5795 60.4832 10.3816C60.7796 10.8763 62.1687 10.497 62.7482 11L62.9694 10.7197L63.3499 10.8888C66.7209 10.596 64.1196 10.7444 67.1057 10.8104C68.8355 10.765 69.6583 10.3775 70.6183 10.5218C70.4768 10.5218 70.0919 10.3487 70.5431 10.2745C70.6183 10.5218 71.7375 10.0971 71.9543 10.3445C72.3923 10.3115 73.8123 10.3445 73.3345 10.0064C73.5779 10.1754 74.8431 10.2414 74.0911 10.3857C74.5202 10.3939 74.9316 10.4435 75.2413 10.3693L74.6927 10.2745C76.1393 10.225 76.9267 10.4846 77.8646 10.1795L77.3293 10.0477C78.192 10.0271 78.9175 9.99818 79.2537 10.3321L78.3689 10.4352C79.8022 10.427 80.6649 10.4022 81.8594 10.2249L81.4347 10.2167C82.9565 9.88272 90.915 9.60236 92.313 9.18594L91.6671 8.93037L92.8704 8.71184C92.7288 8.71184 92.2909 9.54873 92.1714 9.46628C94.755 9.44154 108.19 9.23131 110.575 9.40447C111.539 9.54465 110.747 9.81268 110.738 9.85391C111.911 9.75496 111.243 9.58175 112.238 9.60236C112.508 9.64772 112.181 9.80442 112.03 9.84153C112.468 9.81267 112.871 9.89919 112.906 9.77962C112.362 9.6848 112.592 9.36732 112.362 9.15705L113.645 9.18182L113.587 9.38384C113.875 9.38796 114.313 8.83133 115.569 8.93853C117.693 9.02511 119.998 8.95095 122.134 8.9963C122.103 9.11587 121.652 9.19004 121.205 9.26013C121.493 9.26425 121.926 9.23545 122.192 9.32203C121.674 9.10764 123.085 9.1777 122.683 9.087C124.245 8.59224 126.271 9.04167 127.651 8.70359C127.77 8.25831 130.602 1.07199 130.602 0.544257C131.031 0.552503 131.455 0.560709 131.588 0.606061C131.478 0.482373 130.637 0.424644 130.186 0.494734L130.111 0.779294C129.08 0.878245 129.867 0.610209 128.863 0.630823C128.81 0.399938 129.735 0.350467 130.549 0.325729C129.814 0.300991 129.084 0.131906 128.783 0.383406C128.093 0.288578 128.859 0.0989508 128.031 0C127.439 0.0700901 126.664 0.296909 125.983 0.160851L125.996 0.119582C124.346 -0.119549 123.47 0.474171 121.957 0.239163L122.121 0.160851C121.586 0.028917 120.537 0.206212 119.573 0.0660316C119.847 0.111384 120.086 0.280361 119.507 0.309221C118.401 0.164918 117.644 0.309249 116.835 0.131963L116.06 0.358745C112.207 0.317515 96.989 0.651494 93.1181 0.688601L93.2685 0.651458C87.3715 0.771024 75.2634 0.758667 69.1717 1.07613C68.2294 0.853495 66.9288 0.907069 65.9467 0.845225C66.4953 0.93593 66.305 1.09676 65.8803 1.08851C62.8854 1.06378 65.6769 1.24101 62.6465 1.33996C59.1561 1.55023 45.8004 1.32347 42.7036 1.13381C41.0403 1.46365 38.961 1.21625 37.333 1.42652L37.4967 1.34821C35.7449 1.4719 25.8354 1.1751 23.8004 1.29466L24.0747 1.33996C22.3007 1.54611 22.544 1.18745 21.1417 1.07613C21.3275 1.44308 19.8057 1.65746 19.2262 1.6822L19.2483 1.59976C18.3723 1.6616 16.3949 1.98311 14.9483 2.03671L15.0058 1.83469C13.8025 2.05321 11.5375 1.96255 10.6704 1.98729C8.69291 1.90483 5.63601 1.55432 2.99054 1.82644L1.2785 1.25339L1.02634 1.31107C1.02634 1.31107 -1.72089 8.26244 1.77397 9.74258L1.71646 9.9446L2.40658 9.91984C3.23385 10.0188 3.61872 9.78375 3.56121 9.98577L2.42427 9.96111C3.25596 10.0188 2.67645 10.126 2.35793 10.2414C2.70741 10.2621 3.04362 10.2827 3.32233 10.3445C3.48601 10.2662 3.20288 10.262 3.07016 10.2167C3.51698 10.1466 4.14076 9.95697 4.68932 10.0477C5.54313 10.0642 4.7424 10.3733 5.73777 10.3939C10.9889 10.5465 16.0764 10.7774 21.385 10.7279C21.5045 10.8104 21.3629 10.8104 21.208 10.8475C22.8051 10.7609 24.2296 10.7897 25.685 10.699C26.0876 10.7897 26.1982 10.9135 26.3176 10.996C26.0788 10.8269 34.3558 10.8063 34.4885 10.8516V10.8599Z" fill="#43C554"/>
</g>
</svg>
